<svg xmlns="http://www.w3.org/2000/svg" version="1.1" xmlns:xlink="http://www.w3.org/1999/xlink" width="100%" height="100%" viewBox="123444 -117068.6 20064 24587.20000000001" stroke-linecap="round" stroke-linejoin="round" stroke-width="0" stroke="#fff"><g fill="currentColor" stroke="#fff" transform="translate(0,-209270) scale(1,-1)"><path stroke-width="150" fill="none" d="M 133004 -94838 L 133004 -94138 M 134204 -94138 L 134204 -94838 M 130972 -94838 L 130972 -94138 M 132172 -94138 L 132172 -94838 M 132619 -102841.5 L 133319 -102841.5 M 133319 -104041.5 L 132619 -104041.5 M 114360 -109855 L 123190 -109855 M 114360 -107315 L 114360 -109855 M 123190 -107315 L 123190 -109855 M 123190 -109855 L 123190 -112395 M 114360 -109855 L 114360 -112395 M 114360 -112395 L 123190 -112395 M 114360 -114935 L 123190 -114935 M 114360 -112395 L 114360 -114935 M 123190 -112395 L 123190 -114935 M 123190 -114935 L 123190 -117475 M 114360 -114935 L 114360 -117475 M 114360 -117475 L 123190 -117475 M 114360 -107315 L 123190 -107315 M 114360 -104775 L 114360 -107315 M 123190 -104775 L 123190 -107315 M 123190 -102235 L 123190 -104775 M 114360 -102235 L 114360 -104775 M 114360 -104775 L 123190 -104775 M 114360 -102235 L 123190 -102235 M 114360 -99695 L 114360 -102235 M 123190 -99695 L 123190 -102235 M 123190 -97155 L 123190 -99695 M 114360 -97155 L 114360 -99695 M 114360 -99695 L 123190 -99695 M 114360 -97155 L 123190 -97155 M 114360 -94615 L 114360 -97155 M 123190 -94615 L 114360 -94615 M 123190 -94615 L 123190 -97155 M 123190 -92075 L 123190 -94615 M 125860 -93345 L 125860 -91795 M 125860 -91795 L 124460 -91795 M 123190 -92075 L 114360 -92075 M 114360 -92075 L 114360 -94615 M 114360 -94615 L 123190 -94615 M 131090 -111214.5 L 131090 -109664.5 M 130810 -105854.5 L 130810 -108394.5 M 130810 -108394.5 L 128270 -108394.5 M 127990 -109664.5 L 127990 -111214.5 M 127990 -111214.5 L 131090 -111214.5 M 128270 -108394.5 L 128270 -105854.5 M 128270 -105854.5 L 130810 -105854.5 M 130897 -99052 L 130897 -98052 M 132247 -98052 L 132247 -99052 M 132929 -99052 L 132929 -98052 M 134279 -98052 L 134279 -99052 M 131659 -107180 L 131659 -106180 M 133009 -106180 L 133009 -107180 M 139420 -106400 L 138920 -106400 M 136170 -103150 L 136670 -103150 M 136170 -106400 L 136670 -106400 M 139420 -103150 L 139420 -103650 M 136170 -103150 L 136170 -103650 M 136170 -106400 L 136170 -105900 M 139420 -106400 L 139420 -105900 M 137214 -96852 A 100 100 0 0 1 137014 -96852 A 100 100 0 0 1 137214 -96852 M 137664 -97102 L 137164 -97102 M 137664 -100002 L 137664 -97102 M 137164 -100002 L 137664 -100002 M 137164 -97102 L 137164 -100002 M 132061.143 -94654.666 L 132108.762 -94702.285 L 132156.381 -94845.142 L 132156.381 -94940.38 L 132108.762 -95083.238 L 132013.524 -95178.476 L 131918.286 -95226.095 L 131727.81 -95273.714 L 131584.952 -95273.714 L 131394.476 -95226.095 L 131299.238 -95178.476 L 131204 -95083.238 L 131156.381 -94940.38 L 131156.381 -94845.142 L 131204 -94702.285 L 131251.619 -94654.666 M 132156.381 -93702.285 L 132156.381 -94273.714 M 132156.381 -93988 L 131156.381 -93988 L 131299.238 -94083.238 L 131394.476 -94178.476 L 131442.095 -94273.714 M 130029.143 -94654.666 L 130076.762 -94702.285 L 130124.381 -94845.142 L 130124.381 -94940.38 L 130076.762 -95083.238 L 129981.524 -95178.476 L 129886.286 -95226.095 L 129695.81 -95273.714 L 129552.952 -95273.714 L 129362.476 -95226.095 L 129267.238 -95178.476 L 129172 -95083.238 L 129124.381 -94940.38 L 129124.381 -94845.142 L 129172 -94702.285 L 129219.619 -94654.666 M 129219.619 -94273.714 L 129172 -94226.095 L 129124.381 -94130.857 L 129124.381 -93892.761 L 129172 -93797.523 L 129219.619 -93749.904 L 129314.857 -93702.285 L 129410.095 -93702.285 L 129552.952 -93749.904 L 130124.381 -94321.333 L 130124.381 -93702.285 M 132802.334 -101898.643 L 132754.715 -101946.262 L 132611.858 -101993.881 L 132516.62 -101993.881 L 132373.762 -101946.262 L 132278.524 -101851.024 L 132230.905 -101755.786 L 132183.286 -101565.31 L 132183.286 -101422.452 L 132230.905 -101231.976 L 132278.524 -101136.738 L 132373.762 -101041.5 L 132516.62 -100993.881 L 132611.858 -100993.881 L 132754.715 -101041.5 L 132802.334 -101089.119 M 133135.667 -100993.881 L 133754.715 -100993.881 L 133421.381 -101374.833 L 133564.239 -101374.833 L 133659.477 -101422.452 L 133707.096 -101470.071 L 133754.715 -101565.31 L 133754.715 -101803.405 L 133707.096 -101898.643 L 133659.477 -101946.262 L 133564.239 -101993.881 L 133278.524 -101993.881 L 133183.286 -101946.262 L 133135.667 -101898.643 M 128662.381 -93678.333 L 129376.667 -93678.333 L 129519.524 -93725.953 L 129614.762 -93821.191 L 129662.381 -93964.048 L 129662.381 -94059.286 M 128757.619 -93249.762 L 128710 -93202.143 L 128662.381 -93106.905 L 128662.381 -92868.809 L 128710 -92773.571 L 128757.619 -92725.952 L 128852.857 -92678.333 L 128948.095 -92678.333 L 129090.952 -92725.952 L 129662.381 -93297.381 L 129662.381 -92678.333 M 123892.381 -109997.833 L 124606.667 -109997.833 L 124749.524 -110045.453 L 124844.762 -110140.691 L 124892.381 -110283.548 L 124892.381 -110378.786 M 123892.381 -109616.881 L 123892.381 -108997.833 L 124273.333 -109331.167 L 124273.333 -109188.309 L 124320.952 -109093.071 L 124368.571 -109045.452 L 124463.81 -108997.833 L 124701.905 -108997.833 L 124797.143 -109045.452 L 124844.762 -109093.071 L 124892.381 -109188.309 L 124892.381 -109474.024 L 124844.762 -109569.262 L 124797.143 -109616.881 M 133924.381 -98718.666 L 133448.19 -99052 M 133924.381 -99290.095 L 132924.381 -99290.095 L 132924.381 -98909.142 L 132972 -98813.904 L 133019.619 -98766.285 L 133114.857 -98718.666 L 133257.714 -98718.666 L 133352.952 -98766.285 L 133400.571 -98813.904 L 133448.19 -98909.142 L 133448.19 -99290.095 M 133924.381 -97766.285 L 133924.381 -98337.714 M 133924.381 -98052 L 132924.381 -98052 L 133067.238 -98147.238 L 133162.476 -98242.476 L 133210.095 -98337.714 M 135956.381 -98718.666 L 135480.19 -99052 M 135956.381 -99290.095 L 134956.381 -99290.095 L 134956.381 -98909.142 L 135004 -98813.904 L 135051.619 -98766.285 L 135146.857 -98718.666 L 135289.714 -98718.666 L 135384.952 -98766.285 L 135432.571 -98813.904 L 135480.19 -98909.142 L 135480.19 -99290.095 M 135051.619 -98337.714 L 135004 -98290.095 L 134956.381 -98194.857 L 134956.381 -97956.761 L 135004 -97861.523 L 135051.619 -97813.904 L 135146.857 -97766.285 L 135242.095 -97766.285 L 135384.952 -97813.904 L 135956.381 -98385.333 L 135956.381 -97766.285 M 134686.381 -106846.666 L 134210.19 -107180 M 134686.381 -107418.095 L 133686.381 -107418.095 L 133686.381 -107037.142 L 133734 -106941.904 L 133781.619 -106894.285 L 133876.857 -106846.666 L 134019.714 -106846.666 L 134114.952 -106894.285 L 134162.571 -106941.904 L 134210.19 -107037.142 L 134210.19 -107418.095 M 133686.381 -106513.333 L 133686.381 -105894.285 L 134067.333 -106227.619 L 134067.333 -106084.761 L 134114.952 -105989.523 L 134162.571 -105941.904 L 134257.81 -105894.285 L 134495.905 -105894.285 L 134591.143 -105941.904 L 134638.762 -105989.523 L 134686.381 -106084.761 L 134686.381 -106370.476 L 134638.762 -106465.714 L 134591.143 -106513.333 M 140097.381 -105536.905 L 140906.905 -105536.905 L 141002.143 -105489.286 L 141049.762 -105441.667 L 141097.381 -105346.429 L 141097.381 -105155.952 L 141049.762 -105060.714 L 141002.143 -105013.095 L 140906.905 -104965.476 L 140097.381 -104965.476 M 141097.381 -103965.476 L 141097.381 -104536.905 M 141097.381 -104251.191 L 140097.381 -104251.191 L 140240.238 -104346.429 L 140335.476 -104441.667 L 140383.095 -104536.905 M 136387.81 -96454.381 L 136387.81 -95454.381 M 137435.429 -96359.143 L 137387.81 -96406.762 L 137244.953 -96454.381 L 137149.715 -96454.381 L 137006.857 -96406.762 L 136911.619 -96311.524 L 136864 -96216.286 L 136816.381 -96025.81 L 136816.381 -95882.952 L 136864 -95692.476 L 136911.619 -95597.238 L 137006.857 -95502 L 137149.715 -95454.381 L 137244.953 -95454.381 L 137387.81 -95502 L 137435.429 -95549.619 M 138387.81 -96454.381 L 137816.381 -96454.381 M 138102.095 -96454.381 L 138102.095 -95454.381 L 138006.857 -95597.238 L 137911.619 -95692.476 L 137816.381 -95740.095"/></g></svg>